<svg width="1583" height="349" viewBox="0 0 1583 349" fill="none" xmlns="http://www.w3.org/2000/svg">
<path d="M415.286 183.266C415.286 163.658 419.276 146.558 427.256 131.966C435.236 117.146 446.294 105.746 460.43 97.766C474.566 89.558 490.754 85.454 508.994 85.454C532.478 85.454 551.858 91.382 567.134 103.238C582.638 114.866 593.012 131.282 598.256 152.486H546.614C543.878 144.278 539.204 137.894 532.592 133.334C526.208 128.546 518.228 126.152 508.652 126.152C494.972 126.152 484.142 131.168 476.162 141.2C468.182 151.004 464.192 165.026 464.192 183.266C464.192 201.278 468.182 215.3 476.162 225.332C484.142 235.136 494.972 240.038 508.652 240.038C528.032 240.038 540.686 231.374 546.614 214.046H598.256C593.012 234.566 582.638 250.868 567.134 262.952C551.63 275.036 532.25 281.078 508.994 281.078C490.754 281.078 474.566 277.088 460.43 269.108C446.294 260.9 435.236 249.5 427.256 234.908C419.276 220.088 415.286 202.874 415.286 183.266Z" fill="#212278"/>
<path d="M610.76 182.582C610.76 163.43 614.522 146.444 622.046 131.624C629.798 116.804 640.172 105.404 653.168 97.424C666.392 89.444 681.098 85.454 697.286 85.454C711.422 85.454 723.734 88.304 734.222 94.004C744.938 99.704 753.488 106.886 759.872 115.55V88.532H808.094V278H759.872V250.298C753.716 259.19 745.166 266.6 734.222 272.528C723.506 278.228 711.08 281.078 696.944 281.078C680.984 281.078 666.392 276.974 653.168 268.766C640.172 260.558 629.798 249.044 622.046 234.224C614.522 219.176 610.76 201.962 610.76 182.582ZM759.872 183.266C759.872 171.638 757.592 161.72 753.032 153.512C748.472 145.076 742.316 138.692 734.564 134.36C726.812 129.8 718.49 127.52 709.598 127.52C700.706 127.52 692.498 129.686 684.974 134.018C677.45 138.35 671.294 144.734 666.506 153.17C661.946 161.378 659.666 171.182 659.666 182.582C659.666 193.982 661.946 204.014 666.506 212.678C671.294 221.114 677.45 227.612 684.974 232.172C692.726 236.732 700.934 239.012 709.598 239.012C718.49 239.012 726.812 236.846 734.564 232.514C742.316 227.954 748.472 221.57 753.032 213.362C757.592 204.926 759.872 194.894 759.872 183.266Z" fill="#212278"/>
<path d="M892.478 117.944C898.634 107.912 906.614 100.046 916.418 94.346C926.45 88.646 937.85 85.796 950.618 85.796V136.07H937.964C922.916 136.07 911.516 139.604 903.764 146.672C896.24 153.74 892.478 166.052 892.478 183.608V278H844.598V88.532H892.478V117.944Z" fill="#212278"/>
<path d="M1020.49 116.234C1026.64 107.114 1035.08 99.704 1045.8 94.004C1056.74 88.304 1069.17 85.454 1083.07 85.454C1099.26 85.454 1113.85 89.444 1126.85 97.424C1140.07 105.404 1150.45 116.804 1157.97 131.624C1165.72 146.216 1169.6 163.202 1169.6 182.582C1169.6 201.962 1165.72 219.176 1157.97 234.224C1150.45 249.044 1140.07 260.558 1126.85 268.766C1113.85 276.974 1099.26 281.078 1083.07 281.078C1068.94 281.078 1056.51 278.342 1045.8 272.87C1035.31 267.17 1026.87 259.874 1020.49 250.982V278H972.607V24.92H1020.49V116.234ZM1120.69 182.582C1120.69 171.182 1118.3 161.378 1113.51 153.17C1108.95 144.734 1102.8 138.35 1095.04 134.018C1087.52 129.686 1079.31 127.52 1070.42 127.52C1061.76 127.52 1053.55 129.8 1045.8 134.36C1038.27 138.692 1032.12 145.076 1027.33 153.512C1022.77 161.948 1020.49 171.866 1020.49 183.266C1020.49 194.666 1022.77 204.584 1027.33 213.02C1032.12 221.456 1038.27 227.954 1045.8 232.514C1053.55 236.846 1061.76 239.012 1070.42 239.012C1079.31 239.012 1087.52 236.732 1095.04 232.172C1102.8 227.612 1108.95 221.114 1113.51 212.678C1118.3 204.242 1120.69 194.21 1120.69 182.582Z" fill="#212278"/>
<path d="M1278.26 281.078C1260.02 281.078 1243.61 277.088 1229.02 269.108C1214.42 260.9 1202.91 249.386 1194.47 234.566C1186.27 219.746 1182.16 202.646 1182.16 183.266C1182.16 163.886 1186.38 146.786 1194.82 131.966C1203.48 117.146 1215.22 105.746 1230.04 97.766C1244.86 89.558 1261.39 85.454 1279.63 85.454C1297.87 85.454 1314.4 89.558 1329.22 97.766C1344.04 105.746 1355.67 117.146 1364.11 131.966C1372.77 146.786 1377.1 163.886 1377.1 183.266C1377.1 202.646 1372.66 219.746 1363.76 234.566C1355.1 249.386 1343.24 260.9 1328.2 269.108C1313.38 277.088 1296.73 281.078 1278.26 281.078ZM1278.26 239.354C1286.93 239.354 1295.02 237.302 1302.55 233.198C1310.3 228.866 1316.45 222.482 1321.01 214.046C1325.57 205.61 1327.85 195.35 1327.85 183.266C1327.85 165.254 1323.07 151.46 1313.49 141.884C1304.14 132.08 1292.63 127.178 1278.95 127.178C1265.27 127.178 1253.75 132.08 1244.41 141.884C1235.29 151.46 1230.73 165.254 1230.73 183.266C1230.73 201.278 1235.17 215.186 1244.06 224.99C1253.18 234.566 1264.58 239.354 1278.26 239.354Z" fill="#212278"/>
<path d="M1506.96 85.796C1529.53 85.796 1547.77 92.978 1561.68 107.342C1575.59 121.478 1582.54 141.314 1582.54 166.85V278H1534.66V173.348C1534.66 158.3 1530.9 146.786 1523.37 138.806C1515.85 130.598 1505.59 126.494 1492.59 126.494C1479.37 126.494 1468.88 130.598 1461.13 138.806C1453.61 146.786 1449.84 158.3 1449.84 173.348V278H1401.96V88.532H1449.84V112.13C1456.23 103.922 1464.32 97.538 1474.13 92.978C1484.16 88.19 1495.1 85.796 1506.96 85.796Z" fill="#212278"/>
<path d="M181.165 139.644V69.822L241.346 35.0571L241.054 104.879L181.165 139.644Z" fill="#60FFD2"/>
<path d="M181.165 69.822V139.644L120.4 104.879V35.0571L181.165 69.822Z" fill="#36B5B4"/>
<path d="M120.4 35.0571L181.165 69.822L241.346 35.0571L181.165 0L120.4 35.0571Z" fill="#5FE4D2"/>
<path d="M240.818 244.173V174.351L300.999 139.586L300.707 209.408L240.818 244.173Z" fill="#71DEFF"/>
<path d="M240.818 174.351V244.173L180.052 209.408V139.586L240.818 174.351Z" fill="#3877C5"/>
<path d="M180.052 139.586L240.818 174.351L300.999 139.586L240.818 104.529L180.052 139.586Z" fill="#4EAADE"/>
<path d="M121.512 244.173V174.351L181.693 139.586L181.401 209.408L121.512 244.173Z" fill="#71DEFF"/>
<path d="M121.512 174.351V244.173L60.7466 209.408V139.586L121.512 174.351Z" fill="#3877C5"/>
<path d="M60.7466 139.586L121.512 174.351L181.693 139.586L121.512 104.529L60.7466 139.586Z" fill="#4EAADE"/>
<path d="M181.165 348.702V278.88L241.346 244.115L241.054 313.937L181.165 348.702Z" fill="#7D7FE5"/>
<path d="M181.165 278.88V348.702L120.4 313.937V244.115L181.165 278.88Z" fill="#2F31AE"/>
<path d="M120.4 244.115L181.165 278.88L241.346 244.115L181.165 209.057L120.4 244.115Z" fill="#6041D0"/>
<path d="M60.7652 348.702V278.88L120.947 244.115L120.654 313.937L60.7652 348.702Z" fill="#7D7FE5"/>
<path d="M60.7652 278.88V348.702L0 313.937V244.115L60.7652 278.88Z" fill="#2F31AE"/>
<path d="M0 244.115L60.7652 278.88L120.947 244.115L60.7656 209.057L0 244.115Z" fill="#6041D0"/>
<path d="M301.017 348.702V278.88L361.198 244.115L360.906 313.937L301.017 348.702Z" fill="#7D7FE5"/>
<path d="M301.017 278.88V348.702L240.252 313.937V244.115L301.017 278.88Z" fill="#2F31AE"/>
<path d="M240.252 244.115L301.017 278.88L361.198 244.115L301.018 209.057L240.252 244.115Z" fill="#6041D0"/>
</svg>
